# xmcd
#
# Track frame offsets: 
#        202
#        21277
#        44107
#        63070
#        82815
#        96625
#        117770
#        140370
#        156807
#        170350
#
# Disc length: 2571 seconds
#
# Revision: 3
# Processed by: cddbd v1.5.2PL0 Copyright (c) Steve Scherf et al.
# Submitted via: ExactAudioCopyFreeDBPlugin 1.0
#
DISCID=7e0a090a
DTITLE=Irma Thomas - True Believer
DYEAR=1992
DGENRE=Soul
TTITLE0=Trying to Catch a Cab in the Rain
TTITLE1=Can't You Hear it in My Tears
TTITLE2=I Never Fool Nobody But Me
TTITLE3=Smoke Filled Room
TTITLE4=Big Talk
TTITLE5=Chains of Love
TTITLE6=Heart Full of Rain
TTITLE7=Sweet Touch of Love
TTITLE8=I'll Be Satisfied
TTITLE9=True Believer
EXTD=
EXTT0=
EXTT1=
EXTT2=
EXTT3=
EXTT4=
EXTT5=
EXTT6=
EXTT7=
EXTT8=
EXTT9=
PLAYORDER=
